<?xml version="1.0" encoding="UTF-8" standalone="no"?>
<svg
   xmlns:dc="http://purl.org/dc/elements/1.1/"
   xmlns:cc="http://creativecommons.org/ns#"
   xmlns:rdf="http://www.w3.org/1999/02/22-rdf-syntax-ns#"
   xmlns:svg="http://www.w3.org/2000/svg"
   xmlns="http://www.w3.org/2000/svg"
   xmlns:sodipodi="http://sodipodi.sourceforge.net/DTD/sodipodi-0.dtd"
   xmlns:inkscape="http://www.inkscape.org/namespaces/inkscape"
   version="1.1"
   id="svg833"
   width="1000"
   height="498.68915"
   viewBox="0 0 1000 498.68913"
   sodipodi:docname="abc.svg"
   inkscape:version="1.0 (4035a4fb49, 2020-05-01)">
  <metadata
     id="metadata839">
    <rdf:RDF>
      <cc:Work
         rdf:about="">
        <dc:format>image/svg+xml</dc:format>
        <dc:type
           rdf:resource="http://purl.org/dc/dcmitype/StillImage" />
        <dc:title />
      </cc:Work>
    </rdf:RDF>
  </metadata>
  <defs
     id="defs837" />
  <sodipodi:namedview
     inkscape:document-rotation="0"
     pagecolor="#ffffff"
     bordercolor="#666666"
     borderopacity="1"
     objecttolerance="10"
     gridtolerance="10"
     guidetolerance="10"
     inkscape:pageopacity="0"
     inkscape:pageshadow="2"
     inkscape:window-width="1920"
     inkscape:window-height="1001"
     id="namedview835"
     showgrid="false"
     inkscape:zoom="0.84"
     inkscape:cx="526.19048"
     inkscape:cy="172.80819"
     inkscape:window-x="-9"
     inkscape:window-y="-9"
     inkscape:window-maximized="1"
     inkscape:current-layer="g841" />
  <g
     inkscape:groupmode="layer"
     inkscape:label="Image"
     id="g841"
     transform="translate(30.952381,122.30819)">
    <g
       inkscape:export-ydpi="96"
       inkscape:export-xdpi="96"
       transform="matrix(1,0,0,1.0026286,0,0.32150121)"
       id="g855">
      <path
         id="path845"
         d="m -30.952381,-54.907874 v -32.599689 l 11.75,-3.634697 c 57.055798,-17.64941 119.276731,-27.15916 200.414051,-30.63097 51.22298,-2.1918 120.73807,2.44672 182.33595,12.16671 27.6417,4.36178 68.45411,12.7221 92.5,18.948381 73.88449,19.131159 121.85354,27.923158 186,34.090978 24.62827,2.368061 51.96675,3.444151 87.5,3.444151 69.82132,0 117.27002,-4.77034 182,-18.297696 12.15258,-2.539662 37.77522,-9.280372 47.21221,-12.420415 4.99554,-1.662204 9.35392,-3.02219 9.68529,-3.02219 0.33137,0 0.6025,14.524903 0.6025,32.277564 v 32.277563 h -500 -500.000001 z"
         style="fill-opacity:1;stroke-width:0.996572"
         fill='#ff6700;' <!-- Change orange here --> />
      <rect
         style="fill:#ff6700;stroke-width:1.12591" <!-- Change orange here -->
         id="rect845"
         width="1000"
         height="400"
         x="-30.952381"
         y="-23.619047" />
    </g>
  </g>
</svg>
